<svg width="230" height="173" viewBox="0 0 230 173" fill="none" xmlns="http://www.w3.org/2000/svg">
<path d="M218.673 49.6218C196.651 38.4815 167.829 38.9061 144.801 46.4194C122.756 53.6083 96.4266 70.7979 96.2569 96.7614C96.219 106.219 101.809 115.619 112.443 113.948C122.325 112.387 127.681 102.921 125.641 93.463C120.153 67.9346 83.7189 69.2958 64.7661 75.8209C52.7341 79.9711 41.8526 86.8873 33.0007 96.0108C24.8353 104.462 16.745 115.925 15.2771 127.83C15.0643 129.532 17.8557 130.218 18.5666 128.737C22.4118 120.542 25.4165 112.477 31.02 105.216C36.886 97.6863 44.1242 91.3287 52.3552 86.4769C68.5629 76.8584 92.4264 71.2316 110.1 80.4017C119.477 85.2357 128.383 101.111 116.234 108.338C111.31 111.264 104.876 110.628 101.99 105.266C99.3557 100.374 99.9636 93.888 101.332 88.7315C106.895 67.7683 129.225 54.7652 148.652 48.8119C159.658 45.4719 171.142 43.9623 182.643 44.3436C194.935 44.7534 206.162 47.8887 217.776 51.5597C218.026 51.628 218.293 51.6037 218.526 51.4912C218.76 51.3787 218.944 51.1857 219.046 50.9478C219.147 50.71 219.159 50.4434 219.079 50.1973C218.999 49.9512 218.832 49.7422 218.61 49.6091L218.673 49.6218Z" fill="#0E2E51"/>
<path d="M223.575 48.7879C202.083 31.7642 172.183 29.8999 147.341 40.2952C135.429 45.4097 124.527 52.5988 115.144 61.5263C105.507 70.5355 95.2798 81.7562 91.3824 94.6231C88.6176 103.588 89.8976 119.495 102.217 120.366C113.051 121.1 125.219 111.019 127.586 100.754C130.242 89.2578 121.463 78.9025 111.243 74.9769C99.0019 70.2793 84.4592 72.3786 72.2268 75.9101C45.437 83.6997 22.4866 103.639 11.6586 129.323C10.6274 131.777 14.2505 133.817 15.3224 131.342C23.3951 112.783 37.3964 97.4122 55.146 87.6238C64.2021 82.5673 74.0818 79.1422 84.3322 77.5056C96.029 75.7401 110.341 75.4763 119.077 84.8041C128.712 95.1069 122.701 108.262 111.421 114.067C104.83 117.461 97.6366 117.591 94.7642 109.526C92.4406 102.971 94.6109 95.5124 97.609 89.5642C107.352 70.5176 126.795 53.8816 146.011 44.9904C170.187 33.8443 200.023 34.1395 221.664 50.7706C223.059 51.8373 224.976 49.8741 223.575 48.7879Z" fill="#0E2E51"/>
<path d="M45.3914 99.0331C33.9362 109.406 22.5709 119.844 11.0385 130.089L15.1025 131.797C14.2557 124.587 13.4701 117.399 13.156 110.148C12.8573 103.469 13.8133 96.2781 12.5392 89.7477C12.1407 87.6883 9.05126 87.8298 8.53593 89.7328C6.71519 96.385 7.72478 104.272 8.10244 111.116C8.46396 118.254 9.21483 125.367 10.3517 132.424C10.6587 134.241 13.15 134.698 14.3409 133.528C25.3577 122.684 36.5379 112.097 47.6714 101.417C49.2046 99.9431 46.928 97.6351 45.3356 99.0778L45.3914 99.0331Z" fill="#0E2E51"/>
</svg>
